name rise49.25peak52.1432fall72.8391.mot
datacolumns 19
datarows 32
range 12.64828800000000 12.69995100000000
endheader
time	ground_force1_vx	ground_force1_vy	ground_force1_vz	ground_force1_px	ground_force1_py	ground_force1_pz	ground_force2_vx	ground_force2_vy	ground_force2_vz	ground_force2_px	ground_force2_py	ground_force2_pz	ground_torque1_x	ground_torque1_y	ground_torque1_z	ground_torque2_x	ground_torque2_y	ground_torque2_z	
12.64828800000000	-42.89689600000000	806.17451100000005	46.18439200000000	0.12170000000000	0.00000000000000	0.08643300000000	-3.72007200000000	26.35313700000000	3.47550300000000	0.32418400000000	0.00000000000000	-0.08883900000000	0.00000000000000	19.12380000000000	0.00000000000000	0.00000000000000	1.84046700000000	0.00000000000000	
12.64994600000000	-43.66926400000000	806.22534900000005	46.42426700000000	0.12077100000000	0.00000000000000	0.08640900000000	-4.42638100000000	32.26190100000000	4.18994000000000	0.33076300000000	0.00000000000000	-0.08893400000000	0.00000000000000	19.14283100000000	0.00000000000000	0.00000000000000	2.26093400000000	0.00000000000000	
12.65161200000000	-44.45581300000000	806.17426899999998	46.65008800000000	0.11985200000000	0.00000000000000	0.08638300000000	-5.11552000000000	38.36475700000000	4.90706700000000	0.33665300000000	0.00000000000000	-0.08902800000000	0.00000000000000	19.16075300000000	0.00000000000000	0.00000000000000	2.69370300000000	0.00000000000000	
12.65327900000000	-45.25665500000000	806.01725899999997	46.86099900000000	0.11894200000000	0.00000000000000	0.08635600000000	-5.76642600000000	44.53975700000000	5.60869200000000	0.34194500000000	0.00000000000000	-0.08912200000000	0.00000000000000	19.17754300000000	0.00000000000000	0.00000000000000	3.12821600000000	0.00000000000000	
12.65494600000000	-46.07184600000000	805.75032499999998	47.05615900000000	0.11804000000000	0.00000000000000	0.08632700000000	-6.36086000000000	50.67797200000000	6.27881000000000	0.34671400000000	0.00000000000000	-0.08921600000000	0.00000000000000	19.19317600000000	0.00000000000000	0.00000000000000	3.55479300000000	0.00000000000000	
12.65661800000000	-46.90137900000000	805.36950000000002	47.23474400000000	0.11714600000000	0.00000000000000	0.08629600000000	-6.88439700000000	56.69036700000000	6.90452100000000	0.35102200000000	0.00000000000000	-0.08931200000000	0.00000000000000	19.20761500000000	0.00000000000000	0.00000000000000	3.96524600000000	0.00000000000000	
12.65828400000000	-47.74518400000000	804.87084300000004	47.39595000000000	0.11625900000000	0.00000000000000	0.08626300000000	-7.32696100000000	62.51208100000000	7.47656400000000	0.35491900000000	0.00000000000000	-0.08941100000000	0.00000000000000	19.22082200000000	0.00000000000000	0.00000000000000	4.35328200000000	0.00000000000000	
12.65995400000000	-48.60312500000000	804.25044800000001	47.53899600000000	0.11537900000000	0.00000000000000	0.08622800000000	-7.68293000000000	68.10405299999999	7.98946700000000	0.35845200000000	0.00000000000000	-0.08951300000000	0.00000000000000	19.23274900000000	0.00000000000000	0.00000000000000	4.71468800000000	0.00000000000000	
12.66161600000000	-49.47499500000000	803.50444800000002	47.66312900000000	0.11450300000000	0.00000000000000	0.08619100000000	-7.95085400000000	73.45226400000000	8.44136600000000	0.36165500000000	0.00000000000000	-0.08961800000000	0.00000000000000	19.24334500000000	0.00000000000000	0.00000000000000	5.04731200000000	0.00000000000000	
12.66328600000000	-50.36051700000000	802.62901599999998	47.76762100000000	0.11363300000000	0.00000000000000	0.08615300000000	-8.13288900000000	78.56505500000000	8.83355400000000	0.36456300000000	0.00000000000000	-0.08972700000000	0.00000000000000	19.25255100000000	0.00000000000000	0.00000000000000	5.35087400000000	0.00000000000000	
12.66495400000000	-51.25933900000000	801.62037699999996	47.85177600000000	0.11276500000000	0.00000000000000	0.08611200000000	-8.23402400000000	83.46906300000001	9.16984900000000	0.36720200000000	0.00000000000000	-0.08984000000000	0.00000000000000	19.26030300000000	0.00000000000000	0.00000000000000	5.62665800000000	0.00000000000000	
12.66661600000000	-52.17103400000000	800.47480499999995	47.91493000000000	0.11190100000000	0.00000000000000	0.08607000000000	-8.26121800000000	88.20437200000001	9.45586700000000	0.36959800000000	0.00000000000000	-0.08995700000000	0.00000000000000	19.26653000000000	0.00000000000000	0.00000000000000	5.87712300000000	0.00000000000000	
12.66827900000000	-53.09509600000000	799.18863399999998	47.95645800000000	0.11103900000000	0.00000000000000	0.08602500000000	-8.22252400000000	92.81939800000001	9.69827100000000	0.37177100000000	0.00000000000000	-0.09007800000000	0.00000000000000	19.27115700000000	0.00000000000000	0.00000000000000	6.10548400000000	0.00000000000000	
12.66995100000000	-54.03094100000000	797.75826199999995	47.97576900000000	0.11017800000000	0.00000000000000	0.08597900000000	-8.12628400000000	97.36598200000000	9.90406600000000	0.37374000000000	0.00000000000000	-0.09020300000000	0.00000000000000	19.27410300000000	0.00000000000000	0.00000000000000	6.31530800000000	0.00000000000000	
12.67161700000000	-54.97790500000000	796.18015600000001	47.97231400000000	0.10931800000000	0.00000000000000	0.08593100000000	-7.98043100000000	101.89504599999999	10.07998700000000	0.37552200000000	0.00000000000000	-0.09033300000000	0.00000000000000	19.27528300000000	0.00000000000000	0.00000000000000	6.51015100000000	0.00000000000000	
12.67328300000000	-55.93524200000000	794.45085800000004	47.94558500000000	0.10845700000000	0.00000000000000	0.08588100000000	-7.79195000000000	106.45305100000000	10.23200900000000	0.37713200000000	0.00000000000000	-0.09046600000000	0.00000000000000	19.27460400000000	0.00000000000000	0.00000000000000	6.69325400000000	0.00000000000000	
12.67495100000000	-56.90212200000000	792.56698900000004	47.89512000000000	0.10759400000000	0.00000000000000	0.08582900000000	-7.56650900000000	111.07939900000000	10.36500600000000	0.37858400000000	0.00000000000000	-0.09060400000000	0.00000000000000	19.27197100000000	0.00000000000000	0.00000000000000	6.86732400000000	0.00000000000000	
12.67661400000000	-57.87763500000000	790.52525800000001	47.82050200000000	0.10673000000000	0.00000000000000	0.08577500000000	-7.30825000000000	115.80479900000000	10.48254500000000	0.37988800000000	0.00000000000000	-0.09074500000000	0.00000000000000	19.26728400000000	0.00000000000000	0.00000000000000	7.03439200000000	0.00000000000000	
12.67828700000000	-58.86078700000000	788.32246799999996	47.72135900000000	0.10586200000000	0.00000000000000	0.08571900000000	-7.01973600000000	120.65056600000000	10.58681900000000	0.38105700000000	0.00000000000000	-0.09089100000000	0.00000000000000	19.26043800000000	0.00000000000000	0.00000000000000	7.19575100000000	0.00000000000000	
12.67994600000000	-59.85049900000000	785.95551799999998	47.59737200000000	0.10499200000000	0.00000000000000	0.08566200000000	-6.70203200000000	125.62871500000000	10.67868900000000	0.38210000000000	0.00000000000000	-0.09104000000000	0.00000000000000	19.25132400000000	0.00000000000000	0.00000000000000	7.35195900000000	0.00000000000000	
12.68161300000000	-60.84561000000000	783.42141300000003	47.44827000000000	0.10411600000000	0.00000000000000	0.08560200000000	-6.35487700000000	130.74271899999999	10.75782400000000	0.38302600000000	0.00000000000000	-0.09119200000000	0.00000000000000	19.23982900000000	0.00000000000000	0.00000000000000	7.50290100000000	0.00000000000000	
12.68328400000000	-61.84487900000000	780.71727199999998	47.27383300000000	0.10323600000000	0.00000000000000	0.08554100000000	-5.97693500000000	135.98874100000000	10.82289700000000	0.38384300000000	0.00000000000000	-0.09134800000000	0.00000000000000	19.22583700000000	0.00000000000000	0.00000000000000	7.64789000000000	0.00000000000000	
12.68495500000000	-62.84697900000000	777.84032900000000	47.07389600000000	0.10235000000000	0.00000000000000	0.08547900000000	-5.56607700000000	141.35715700000000	10.87182100000000	0.38455900000000	0.00000000000000	-0.09150700000000	0.00000000000000	19.20922800000000	0.00000000000000	0.00000000000000	7.78579600000000	0.00000000000000	
12.68662200000000	-63.85050600000000	774.78794300000004	46.84834400000000	0.10145700000000	0.00000000000000	0.08541400000000	-5.11967400000000	146.83421799999999	10.90200300000000	0.38517900000000	0.00000000000000	-0.09166900000000	0.00000000000000	19.18987900000000	0.00000000000000	0.00000000000000	7.91518100000000	0.00000000000000	
12.68828600000000	-64.85397600000000	771.55760399999997	46.59711800000000	0.10055800000000	0.00000000000000	0.08534800000000	-4.63488100000000	152.40368400000000	10.91058500000000	0.38571200000000	0.00000000000000	-0.09183400000000	0.00000000000000	19.16766500000000	0.00000000000000	0.00000000000000	8.03444000000000	0.00000000000000	
12.68995100000000	-65.85582800000000	768.14693799999998	46.32021300000000	0.09965100000000	0.00000000000000	0.08528000000000	-4.10888500000000	158.04833400000001	10.89466200000000	0.38616200000000	0.00000000000000	-0.09200200000000	0.00000000000000	19.14245700000000	0.00000000000000	0.00000000000000	8.14192200000000	0.00000000000000	
12.69162000000000	-66.85442500000001	764.55371600000001	46.01767800000000	0.09873600000000	0.00000000000000	0.08521100000000	-3.53911200000000	163.75124600000001	10.85146600000000	0.38653500000000	0.00000000000000	-0.09217200000000	0.00000000000000	19.11412400000000	0.00000000000000	0.00000000000000	8.23604000000000	0.00000000000000	
12.69328700000000	-67.84805799999999	760.77585699999997	45.68961700000000	0.09781200000000	0.00000000000000	0.08514000000000	-2.92337900000000	169.49681699999999	10.77850800000000	0.38683600000000	0.00000000000000	-0.09234400000000	0.00000000000000	19.08253400000000	0.00000000000000	0.00000000000000	8.31535300000000	0.00000000000000	
12.69495300000000	-68.83494800000000	756.81143799999995	45.33618900000000	0.09687900000000	0.00000000000000	0.08506700000000	-2.26000400000000	175.27148199999999	10.67367600000000	0.38707000000000	0.00000000000000	-0.09251900000000	0.00000000000000	19.04755100000000	0.00000000000000	0.00000000000000	8.37862900000000	0.00000000000000	
12.69661700000000	-69.81325200000001	752.65869899999996	44.95760600000000	0.09593700000000	0.00000000000000	0.08499300000000	-1.54785400000000	181.06415200000001	10.53529100000000	0.38724000000000	0.00000000000000	-0.09269500000000	0.00000000000000	19.00903900000000	0.00000000000000	0.00000000000000	8.42487300000000	0.00000000000000	
12.69828000000000	-70.78105900000000	748.31604900000002	44.55413400000000	0.09498400000000	0.00000000000000	0.08491800000000	-0.78636000000000	186.86638300000001	10.36212600000000	0.38735000000000	0.00000000000000	-0.09287300000000	0.00000000000000	18.96686200000000	0.00000000000000	0.00000000000000	8.45334700000000	0.00000000000000	
12.69995100000000	-71.73640399999999	743.78207499999996	44.12609300000000	0.09402100000000	0.00000000000000	0.08484100000000	0.02451000000000	192.67233400000001	10.15339100000000	0.38740600000000	0.00000000000000	-0.09305300000000	0.00000000000000	18.92087900000000	0.00000000000000	0.00000000000000	8.46356000000000	0.00000000000000	
